<svg width="60" height="60" viewBox="0 0 60 60" xmlns="http://www.w3.org/2000/svg">
  <g fill="#854399" fill-opacity="0.08">
    <circle cx="6" cy="6" r="1.5"/>
    <circle cx="21" cy="6" r="1.5"/>
    <circle cx="36" cy="6" r="1.5"/>
    <circle cx="51" cy="6" r="1.5"/>
    <circle cx="13.5" cy="18" r="1.5"/>
    <circle cx="28.5" cy="18" r="1.5"/>
    <circle cx="43.5" cy="18" r="1.5"/>
    <circle cx="58.5" cy="18" r="1.5"/>
    <circle cx="6" cy="30" r="1.5"/>
    <circle cx="21" cy="30" r="1.5"/>
    <circle cx="36" cy="30" r="1.5"/>
    <circle cx="51" cy="30" r="1.5"/>
    <circle cx="13.5" cy="42" r="1.5"/>
    <circle cx="28.5" cy="42" r="1.5"/>
    <circle cx="43.5" cy="42" r="1.5"/>
    <circle cx="58.5" cy="42" r="1.5"/>
    <circle cx="6" cy="54" r="1.5"/>
    <circle cx="21" cy="54" r="1.5"/>
    <circle cx="36" cy="54" r="1.5"/>
    <circle cx="51" cy="54" r="1.5"/>
  </g>
</svg>
